<?xml version="1.0" encoding="UTF-8" standalone="no"?>
<!-- Created with Inkscape (http://www.inkscape.org/) -->

<svg
   version="1.1"
   id="svg2"
   width="21"
   height="21"
   viewBox="0 0 21 21"
   sodipodi:docname="icon.svg"
   inkscape:version="1.2.2 (b0a8486541, 2022-12-01)"
   xmlns:inkscape="http://www.inkscape.org/namespaces/inkscape"
   xmlns:sodipodi="http://sodipodi.sourceforge.net/DTD/sodipodi-0.dtd"
   xmlns="http://www.w3.org/2000/svg"
   xmlns:svg="http://www.w3.org/2000/svg">
  <sodipodi:namedview
     id="namedview6"
     pagecolor="#ffffff"
     bordercolor="#666666"
     borderopacity="1.0"
     inkscape:showpageshadow="2"
     inkscape:pageopacity="0.0"
     inkscape:pagecheckerboard="0"
     inkscape:deskcolor="#d1d1d1"
     showgrid="false"
     inkscape:zoom="11.238095"
     inkscape:cx="-0.84533898"
     inkscape:cy="10.5"
     inkscape:window-width="1680"
     inkscape:window-height="1028"
     inkscape:window-x="0"
     inkscape:window-y="22"
     inkscape:window-maximized="1"
     inkscape:current-layer="svg2" />
  <defs
     id="defs6" />
  <g
     id="g8"
     style="fill:#999999">
    <path
       style="fill:#999999;stroke-width:0.0615962"
       d="M 9.14616,20.332393 C 6.2574473,19.914549 3.7725273,18.319059 2.1783304,15.85857 -0.1644459,12.242721 0.13151263,7.4767608 2.9062071,4.1372186 4.3929085,2.3478684 6.468992,1.1524558 8.854756,0.71203459 c 0.7800521,-0.1440005 2.510185,-0.1440005 3.290241,0 1.58911,0.29335571 3.015575,0.90552481 4.25381,1.82552501 4.177102,3.103563 5.243498,8.9672504 2.422614,13.3210104 -1.517685,2.3424 -3.874123,3.919659 -6.597808,4.416174 -0.728684,0.132823 -2.3479599,0.163161 -3.077453,0.05766 z m 1.539926,-1.948851 c 1.071864,-0.133128 1.967065,-0.453689 2.7701,-0.991946 2.417694,-1.620527 2.605597,-4.673194 0.385375,-6.260803 -1.696116,-1.2128341 -4.3711201,-0.736504 -5.0116217,0.892405 -0.1913892,0.486732 -0.1925717,1.372455 -0.00247,1.862242 0.2378893,0.612966 0.6856398,1.013464 1.3499957,1.207519 0.260093,0.07598 0.278343,0.07524 0.168601,-0.0065 -0.334236,-0.249697 -0.5300289,-0.500743 -0.6155829,-0.789434 -0.114484,-0.386309 -0.114311,-0.437326 0.0028,-0.832818 0.188873,-0.637327 0.6992769,-1.015226 1.3818399,-1.023101 0.537713,-0.0062 0.917775,0.14712 1.221351,0.492716 0.299094,0.340493 0.404657,0.70246 0.363185,1.245344 -0.151331,1.980974 -2.084371,2.735847 -4.2822013,1.672242 C 8.0503302,15.673755 7.7961856,15.494663 7.5245314,15.222174 6.4636348,14.158001 6.1254845,12.403747 6.7439467,11.17251 7.2582527,10.14863 8.3494395,9.367063 9.5565011,9.1580032 10.581833,8.980425 11.525332,9.2172052 13.484218,10.143763 c 1.379994,0.652731 1.595256,0.72602 2.249333,0.765814 0.558147,0.03395 1.015162,-0.05776 1.485205,-0.298053 1.378999,-0.7049741 1.597278,-2.590818 0.557765,-4.8188753 -0.292243,-0.6263801 -0.410965,-0.7649186 -0.31704,-0.369962 0.03024,0.1271747 0.07177,0.5780652 0.09226,1.0019805 0.06128,1.2670736 -0.15862,1.9896171 -0.677366,2.2256977 -0.31055,0.141333 -0.592404,0.1467819 -1.019425,0.019705 C 15.169658,8.4660624 14.750765,8.0982183 13.57883,6.6712348 12.760073,5.6742713 11.96671,4.8666304 11.469591,4.5240107 11.029049,4.2203828 10.220476,3.8519435 9.6691861,3.7036269 8.9975869,3.5229433 7.5715328,3.506406 6.8079239,3.6704469 5.1068725,4.0358725 3.8768331,5.091186 3.1829218,6.7805187 2.829421,7.6411197 2.5207696,9.2709397 2.5730647,10.000842 l 0.019881,0.27747 0.1437067,-0.5199281 C 3.1657901,8.2057701 3.9716378,7.014213 4.9004146,6.5589595 6.0865603,5.9775531 7.2554329,6.2806948 7.2554329,7.1697239 c 0,0.3413495 -0.231402,0.6864853 -0.6992101,1.0428695 C 5.8064269,8.7838021 5.4386723,9.2713751 5.2306839,9.9700109 5.0675031,10.518133 5.0835689,11.726289 5.2666159,12.672088 5.4630152,13.68688 5.4023561,13.996859 4.9396253,14.343054 4.8147101,14.436514 4.6802916,14.468557 4.420401,14.466827 4.0000691,14.464027 3.706233,14.325481 3.2512074,13.915525 3.0753,13.757039 2.9313757,13.643447 2.9313757,13.663096 c 0,0.109416 0.699212,1.496086 0.9234535,1.831391 0.3744942,0.559974 1.2426545,1.386399 1.8580877,1.768767 1.4351576,0.891659 3.3467992,1.322286 4.9731741,1.120288 z"
       id="path293" />
  </g>
</svg>
